<svg fill="currentColor" viewBox="0 0 20 20" xmlns="http://www.w3.org/2000/svg">
  <path d="M10.455 2.15A.5.5 0 0010 2.5v2.859a2.5 2.5 0 002.5 2.5h.5a2.5 2.5 0 002.5-2.5V2.5a.5.5 0 00-.455-.35l-5-.2zM5.545 2.15A.5.5 0 016 2.5v2.859a2.5 2.5 0 01-2.5 2.5h-.5a2.5 2.5 0 01-2.5-2.5V2.5a.5.5 0 01.455-.35l5-.2zM10.455 12.15a.5.5 0 00-.455.35l-5 .2A.5.5 0 005 13.5v2.859a2.5 2.5 0 002.5 2.5h.5a2.5 2.5 0 002.5-2.5V13.5a.5.5 0 00-.455-.35zM15.545 12.15a.5.5 0 01.455.35l5 .2a.5.5 0 01.455.35v2.859a2.5 2.5 0 01-2.5 2.5h-.5a2.5 2.5 0 01-2.5-2.5V13.5a.5.5 0 01.455-.35z"/>
</svg>